# xmcd
#
# Track frame offsets:
#	150
#	13432
#	21242
#	35582
#	45015
#	64567
#	73885
#	87442
#	102962
#	115470
#	127872
#	141037
#	159082
#	172909
#	192615
#	213702
#	231247
#	243067
#	254575
#
# Disc length: 3548 seconds
#
# Revision: 0
# Processed by: cddbd v1.5.2PL0 Copyright (c) Steve Scherf et al.
# Submitted via: audiograbber 1.83.01
#
DISCID=090dda13
DTITLE=Tony Bennett - On Holiday
DYEAR=1997
DGENRE=Jazz
TTITLE0=Solitude
TTITLE1=All Of Me
TTITLE2=When A Woman Loves A Man
TTITLE3=Me, Myself And I (Are All In Love With You)
TTITLE4=She's Funny That Way (I Got A Woman, Crazy For Me)
TTITLE5=If I Could Be With You (One Hour Tonight)
TTITLE6=Willow Weep For Me
TTITLE7=Laughing At Life
TTITLE8=I Wished On The Moon
TTITLE9=What A Little Moonlight Can Do
TTITLE10=My Old Flame
TTITLE11=That Ole Devil Called Love
TTITLE12=Ill Wind (You're Blowin' Me No Good)
TTITLE13=These Foolish Things (Remind Me Of You)
TTITLE14=Some Other Spring
TTITLE15=Crazy She Calls Me
TTITLE16=Good Morning, Heartache
TTITLE17=Trav'lin' Light
TTITLE18=God Bless The Child (Duet with Billie Holiday)
EXTD=
EXTT0=
EXTT1=
EXTT2=
EXTT3=
EXTT4=
EXTT5=
EXTT6=
EXTT7=
EXTT8=
EXTT9=
EXTT10=
EXTT11=
EXTT12=
EXTT13=
EXTT14=
EXTT15=
EXTT16=
EXTT17=
EXTT18=with Billie Holiday\n
PLAYORDER=
